<?xml version="1.0" encoding="UTF-8"?>
<svg width="320px" height="180px" viewBox="0 0 320 180" version="1.1" xmlns="http://www.w3.org/2000/svg" xmlns:xlink="http://www.w3.org/1999/xlink">
    <title>dd_1</title>
    <g id="dd_1" stroke="none" stroke-width="1" fill="none" fill-rule="evenodd">
        <g id="4536_1_score" transform="translate(29.000000, 46.000000)" fill="#000000" fill-rule="nonzero">
            <g id="Group" transform="translate(0.000000, 13.000000)" stroke="#000000" stroke-linecap="round" stroke-linejoin="round" stroke-width="1.5">
                <g transform="translate(0.000000, 40.000000)" id="Path">
                    <line x1="0" y1="5" x2="285" y2="5"></line>
                </g>
                <g transform="translate(0.000000, 30.000000)" id="Path">
                    <line x1="0" y1="5" x2="285" y2="5"></line>
                </g>
                <g transform="translate(0.000000, 20.000000)" id="Path">
                    <line x1="0" y1="5" x2="285" y2="5"></line>
                </g>
                <g transform="translate(0.000000, 10.000000)" id="Path">
                    <line x1="0" y1="5" x2="285" y2="5"></line>
                </g>
                <g id="Path">
                    <line x1="0" y1="5" x2="285" y2="5"></line>
                </g>
            </g>
            <g id="Group" transform="translate(280.020000, 17.040000)">
                <g transform="translate(4.900000, 0.000000)" id="Rectangle">
                    <rect x="0" y="0" width="6" height="41.5"></rect>
                </g>
                <g id="Rectangle">
                    <rect x="0" y="0" width="1.9" height="41.5"></rect>
                </g>
            </g>
            <g id="Group" transform="translate(7.533000, 0.000000)">
                <path d="M10.56,0 L10.32,0 C6,0 2.52,3.52 2.52,7.88 C2.52,10.2 4.64,12 7,12 C9.16,12 10.8,10.12 10.8,7.88 C10.8,5.8 9.08,4.08 7,4.08 C6.56,4.08 6.16,4.16 5.76,4.32 C6.8,2.76 8.48,1.72 10.44,1.72 L10.6,1.72 L10.56,0 Z M18.36,17.28 C21.08,18.24 22.88,21.08 22.88,23.84 C22.88,27.44 20.24,31 15.96,31.44 C16.92,26.8 17.8,22.2 18.36,17.28 Z M2.88,26.52 C2.88,21.12 8.04,16.64 13.44,16.64 C14.56,16.64 15.64,16.72 16.72,16.88 C16.16,21.96 15.24,26.68 14.2,31.44 C11.04,31.12 9.24,29 9.24,26.68 C9.24,24.92 10.24,23.04 12.48,21.76 C12.68,21.56 12.76,21.36 12.76,21.16 C12.76,20.72 12.36,20.28 11.88,20.28 C11.76,20.28 11.64,20.32 11.52,20.36 C8.32,22.08 6.84,24.96 6.84,27.76 C6.84,31.28 9.16,34.72 13.24,35.64 C12.68,37.96 12.08,40.32 11.4,42.64 C7.12,37.8 2.88,32.92 2.88,26.52 Z M13.32,14.92 C5.8,14.92 7.10542736e-15,21.8 7.10542736e-15,29.88 C7.10542736e-15,36.96 5.24,42.12 9.92,47.52 C9.16,50 8.44,52.52 8.12,55.12 C7.88,57.2 7.84,59.28 7.84,61.36 C7.84,65.96 10.04,70.32 13.8,73.04 C14.04,73.24 14.36,73.24 14.6,73.04 C17.44,69.68 19.92,63.24 19.92,58.72 C19.92,53 16.48,48.52 12.72,44.16 C13.56,41.44 14.28,38.64 14.96,35.88 C15.12,35.88 15.32,35.92 15.48,35.92 C21.68,35.92 25.72,30.8 25.72,25.48 C25.72,22.44 24.4,19.32 21.44,17.08 C20.56,16.4 19.56,15.96 18.52,15.64 C18.64,14.24 18.72,12.84 18.72,11.44 C18.72,10.68 18.68,9.88 18.64,9.12 C18.36,4.36 15.12,0.12 10.56,0 L10.6,1.72 C14.32,1.8 16.72,5.4 16.96,9.36 C17,10.08 17.04,10.84 17.04,11.56 C17.04,12.8 17,14 16.88,15.24 C15.72,15.04 14.56,14.92 13.32,14.92 Z M17.04,62.04 C17.04,64.24 16.88,65.2 16.24,67.2 C12.28,65.28 9.76,61.24 9.76,56.84 C9.76,53.88 10.48,51.52 11.2,49.08 C14.4,52.96 17.04,57 17.04,62.04 Z" id="Shape" transform="translate(12.860000, 36.595000) scale(-1, 1) rotate(-180.000000) translate(-12.860000, -36.595000) "></path>
            </g>
            <g id="Group" transform="translate(97.042000, 29.790000)">
                <rect id="Rectangle" x="0" y="0" width="1.5" height="33.139"></rect>
            </g>
        </g>
        <g id="Notes/Beat*4" transform="translate(149.000000, 105.000000)" fill-rule="nonzero">
            <path d="M0.115513942,8.38652669 C-0.141119488,6.21450343 0.0447786597,3.05462902 0.525407784,1.24963701 C1.00603691,-0.555355 1.58489931,-0.400755957 1.87386374,1.6859836 C2.12394088,3.49190091 2.00728128,6.7771913 1.4780986,8.76167865 C1.0440899,10.3892541 0.372147372,10.55855 0.115513942,8.38652669 Z" id="Combined-Shape" fill="#D7D7D7"></path>
            <path d="M15.1155139,8.38652669 C14.8588805,6.21450343 15.0447786,3.05462902 15.5254078,1.24963701 C16.0060369,-0.555355 16.5848993,-0.400755957 16.8738637,1.6859836 C17.1239409,3.49190091 17.0072813,6.7771913 16.4780986,8.76167865 C16.0440899,10.3892541 15.3721474,10.55855 15.1155139,8.38652669 Z" id="Combined-Shape-Copy" fill="#D7D7D7"></path>
            <path d="M1.8013964,0 L15.6567684,0 C15.7155327,0 15.7631706,0.291988217 15.7631706,0.652173913 C15.7631706,0.716517228 16.4950101,1.62442803 16.4919536,1.6859836 C16.9359579,2.96512171 17.0889359,4.06979384 16.9508876,5 C16.866104,5.57129442 16.7142933,7.54 16.0291456,8.76167865 C15.8349736,9.10790434 16.0633562,9.10790434 16.7142933,8.76167865 C16.7006578,9.03628671 15.2718226,10 15.2249912,10 L1.2939126,10 C1.23514827,10 1.18751037,9.70801178 1.18751037,9.34782609 C1.18751037,9.27296193 0.441788637,9.41831611 0.44590248,9.34782609 C0.106340731,7.27707076 -0.0392848101,5.8277954 0.00902585647,5 C0.0734893673,3.89542825 0.219114908,2.50944889 0.44590248,0.842061924 C0.461041247,0.58266162 1.75644904,0 1.8013964,0 Z" id="Rectangle" fill="#AEC8C5"></path>
        </g>
        <g id="Notes/Beat*4" transform="translate(266.000000, 105.000000)" fill-rule="nonzero">
            <path d="M0.115513942,8.38652669 C-0.141119488,6.21450343 0.0447786597,3.05462902 0.525407784,1.24963701 C1.00603691,-0.555355 1.58489931,-0.400755957 1.87386374,1.6859836 C2.12394088,3.49190091 2.00728128,6.7771913 1.4780986,8.76167865 C1.0440899,10.3892541 0.372147372,10.55855 0.115513942,8.38652669 Z" id="Combined-Shape" fill="#D7D7D7"></path>
            <path d="M15.1155139,8.38652669 C14.8588805,6.21450343 15.0447786,3.05462902 15.5254078,1.24963701 C16.0060369,-0.555355 16.5848993,-0.400755957 16.8738637,1.6859836 C17.1239409,3.49190091 17.0072813,6.7771913 16.4780986,8.76167865 C16.0440899,10.3892541 15.3721474,10.55855 15.1155139,8.38652669 Z" id="Combined-Shape-Copy" fill="#D7D7D7"></path>
            <path d="M1.8013964,0 L15.6567684,0 C15.7155327,0 15.7631706,0.291988217 15.7631706,0.652173913 C15.7631706,0.716517228 16.4950101,1.62442803 16.4919536,1.6859836 C16.9359579,2.96512171 17.0889359,4.06979384 16.9508876,5 C16.866104,5.57129442 16.7142933,7.54 16.0291456,8.76167865 C15.8349736,9.10790434 16.0633562,9.10790434 16.7142933,8.76167865 C16.7006578,9.03628671 15.2718226,10 15.2249912,10 L1.2939126,10 C1.23514827,10 1.18751037,9.70801178 1.18751037,9.34782609 C1.18751037,9.27296193 0.441788637,9.41831611 0.44590248,9.34782609 C0.106340731,7.27707076 -0.0392848101,5.8277954 0.00902585647,5 C0.0734893673,3.89542825 0.219114908,2.50944889 0.44590248,0.842061924 C0.461041247,0.58266162 1.75644904,0 1.8013964,0 Z" id="Rectangle" fill="#AEC8C5"></path>
        </g>
        <g id="Notes/Beat*4" transform="translate(233.000000, 105.000000)" fill-rule="nonzero">
            <path d="M0.115513942,8.38652669 C-0.141119488,6.21450343 0.0447786597,3.05462902 0.525407784,1.24963701 C1.00603691,-0.555355 1.58489931,-0.400755957 1.87386374,1.6859836 C2.12394088,3.49190091 2.00728128,6.7771913 1.4780986,8.76167865 C1.0440899,10.3892541 0.372147372,10.55855 0.115513942,8.38652669 Z" id="Combined-Shape" fill="#D7D7D7"></path>
            <path d="M15.1155139,8.38652669 C14.8588805,6.21450343 15.0447786,3.05462902 15.5254078,1.24963701 C16.0060369,-0.555355 16.5848993,-0.400755957 16.8738637,1.6859836 C17.1239409,3.49190091 17.0072813,6.7771913 16.4780986,8.76167865 C16.0440899,10.3892541 15.3721474,10.55855 15.1155139,8.38652669 Z" id="Combined-Shape-Copy" fill="#D7D7D7"></path>
            <path d="M1.8013964,0 L15.6567684,0 C15.7155327,0 15.7631706,0.291988217 15.7631706,0.652173913 C15.7631706,0.716517228 16.4950101,1.62442803 16.4919536,1.6859836 C16.9359579,2.96512171 17.0889359,4.06979384 16.9508876,5 C16.866104,5.57129442 16.7142933,7.54 16.0291456,8.76167865 C15.8349736,9.10790434 16.0633562,9.10790434 16.7142933,8.76167865 C16.7006578,9.03628671 15.2718226,10 15.2249912,10 L1.2939126,10 C1.23514827,10 1.18751037,9.70801178 1.18751037,9.34782609 C1.18751037,9.27296193 0.441788637,9.41831611 0.44590248,9.34782609 C0.106340731,7.27707076 -0.0392848101,5.8277954 0.00902585647,5 C0.0734893673,3.89542825 0.219114908,2.50944889 0.44590248,0.842061924 C0.461041247,0.58266162 1.75644904,0 1.8013964,0 Z" id="Rectangle" fill="#AEC8C5"></path>
        </g>
        <g id="Notes/Beat*4" transform="translate(119.000000, 105.000000)" fill-rule="nonzero">
            <path d="M0.115513942,8.38652669 C-0.141119488,6.21450343 0.0447786597,3.05462902 0.525407784,1.24963701 C1.00603691,-0.555355 1.58489931,-0.400755957 1.87386374,1.6859836 C2.12394088,3.49190091 2.00728128,6.7771913 1.4780986,8.76167865 C1.0440899,10.3892541 0.372147372,10.55855 0.115513942,8.38652669 Z" id="Combined-Shape" fill="#D7D7D7"></path>
            <path d="M15.1155139,8.38652669 C14.8588805,6.21450343 15.0447786,3.05462902 15.5254078,1.24963701 C16.0060369,-0.555355 16.5848993,-0.400755957 16.8738637,1.6859836 C17.1239409,3.49190091 17.0072813,6.7771913 16.4780986,8.76167865 C16.0440899,10.3892541 15.3721474,10.55855 15.1155139,8.38652669 Z" id="Combined-Shape-Copy" fill="#D7D7D7"></path>
            <path d="M1.8013964,0 L15.6567684,0 C15.7155327,0 15.7631706,0.291988217 15.7631706,0.652173913 C15.7631706,0.716517228 16.4950101,1.62442803 16.4919536,1.6859836 C16.9359579,2.96512171 17.0889359,4.06979384 16.9508876,5 C16.866104,5.57129442 16.7142933,7.54 16.0291456,8.76167865 C15.8349736,9.10790434 16.0633562,9.10790434 16.7142933,8.76167865 C16.7006578,9.03628671 15.2718226,10 15.2249912,10 L1.2939126,10 C1.23514827,10 1.18751037,9.70801178 1.18751037,9.34782609 C1.18751037,9.27296193 0.441788637,9.41831611 0.44590248,9.34782609 C0.106340731,7.27707076 -0.0392848101,5.8277954 0.00902585647,5 C0.0734893673,3.89542825 0.219114908,2.50944889 0.44590248,0.842061924 C0.461041247,0.58266162 1.75644904,0 1.8013964,0 Z" id="Rectangle" fill="#AEC8C5"></path>
        </g>
        <g id="-1" transform="translate(114.500000, 75.790000)" fill="#000000" fill-rule="nonzero">
            <g id="Group" transform="translate(0.000000, 28.560000)">
                <path d="M8.72,10.88 C10.92,10.88 13.04,9.76 13.04,7.32 C13.04,4.48 10.84,2.48 8.96,1.36 C7.56,0.52 5.96,0 4.32,0 C2.12,0 0,1.12 0,3.56 C0,6.4 2.2,8.4 4.08,9.52 C5.48,10.36 7.08,10.88 8.72,10.88 Z" id="Path" transform="translate(6.520000, 5.440000) scale(-1, 1) rotate(-180.000000) translate(-6.520000, -5.440000) "></path>
            </g>
            <g id="Group" transform="translate(42.542000, 0.000000)">
                <rect id="Rectangle" x="0" y="0" width="1.5" height="33.139"></rect>
            </g>
            <g id="Group" transform="translate(31.000000, 28.560000)">
                <path d="M8.72,10.88 C10.92,10.88 13.04,9.76 13.04,7.32 C13.04,4.48 10.84,2.48 8.96,1.36 C7.56,0.52 5.96,0 4.32,0 C2.12,0 0,1.12 0,3.56 C0,6.4 2.2,8.4 4.08,9.52 C5.48,10.36 7.08,10.88 8.72,10.88 Z" id="Path" transform="translate(6.520000, 5.440000) scale(-1, 1) rotate(-180.000000) translate(-6.520000, -5.440000) "></path>
            </g>
        </g>
        <g id="Group" transform="translate(241.042000, 75.790000)" fill="#000000" fill-rule="nonzero">
            <rect id="Rectangle" x="0" y="0" width="1.5" height="33.139"></rect>
        </g>
        <g id="-1" transform="translate(229.500000, 75.790000)" fill="#000000" fill-rule="nonzero">
            <g id="Group" transform="translate(0.000000, 28.560000)">
                <path d="M8.72,10.88 C10.92,10.88 13.04,9.76 13.04,7.32 C13.04,4.48 10.84,2.48 8.96,1.36 C7.56,0.52 5.96,0 4.32,0 C2.12,0 0,1.12 0,3.56 C0,6.4 2.2,8.4 4.08,9.52 C5.48,10.36 7.08,10.88 8.72,10.88 Z" id="Path" transform="translate(6.520000, 5.440000) scale(-1, 1) rotate(-180.000000) translate(-6.520000, -5.440000) "></path>
            </g>
            <g id="Group" transform="translate(43.542000, 0.000000)">
                <rect id="Rectangle" x="0" y="0" width="1.5" height="33.139"></rect>
            </g>
            <g id="Group" transform="translate(32.000000, 28.560000)">
                <path d="M8.72,10.88 C10.92,10.88 13.04,9.76 13.04,7.32 C13.04,4.48 10.84,2.48 8.96,1.36 C7.56,0.52 5.96,0 4.32,0 C2.12,0 0,1.12 0,3.56 C0,6.4 2.2,8.4 4.08,9.52 C5.48,10.36 7.08,10.88 8.72,10.88 Z" id="Path" transform="translate(6.520000, 5.440000) scale(-1, 1) rotate(-180.000000) translate(-6.520000, -5.440000) "></path>
            </g>
        </g>
        <g id="Group" transform="translate(117.500000, 46.000000)" fill="#000000" fill-rule="nonzero">
            <g id="2">
                <path d="M3.89740082,0 C4.39899681,0 4.85795714,0.0739854081 5.27428181,0.221956224 C5.69060648,0.369927041 6.04673963,0.579343365 6.34268126,0.850205198 C6.63862289,1.12106703 6.86935705,1.44710442 7.03488372,1.82831737 C7.2004104,2.20953032 7.28317373,2.63337893 7.28317373,3.0998632 C7.28317373,3.50113999 7.22423621,3.87232102 7.10636115,4.21340629 C6.98848609,4.55449156 6.83048336,4.88052896 6.63235294,5.19151847 C6.43422253,5.50250798 6.20223438,5.80346557 5.93638851,6.09439124 C5.67054264,6.38531692 5.39215686,6.68125855 5.10123119,6.98221614 L2.64842681,9.4876881 C2.88919289,9.41746466 3.124943,9.36354309 3.35567715,9.32592339 C3.58641131,9.28830369 3.80711354,9.26949384 4.01778386,9.26949384 L6.80916553,9.26949384 C7.00980392,9.26949384 7.16906065,9.32592339 7.2869357,9.43878249 C7.40481076,9.55164159 7.46374829,9.70086639 7.46374829,9.88645691 L7.46374829,11 L0,11 L0,10.3830369 C0,10.2576379 0.0263337893,10.127223 0.079001368,9.99179207 C0.131668947,9.85636115 0.215686275,9.73096215 0.331053352,9.61559508 L3.63406293,6.30506156 C3.90994072,6.02416781 4.15697674,5.75581395 4.375171,5.5 C4.59336525,5.24418605 4.77644779,4.99088007 4.9244186,4.74008208 C5.07238942,4.48928409 5.18524852,4.23472412 5.2629959,3.97640219 C5.34074327,3.71808026 5.37961696,3.44596443 5.37961696,3.16005472 C5.37961696,2.89922481 5.34199726,2.66974464 5.26675787,2.47161423 C5.19151847,2.27348381 5.08367533,2.10670315 4.94322845,1.97127223 C4.80278158,1.83584131 4.63600091,1.73426813 4.44288646,1.66655267 C4.249772,1.59883721 4.03283174,1.56497948 3.79206566,1.56497948 C3.34564523,1.56497948 2.97822617,1.67783858 2.68980848,1.90355677 C2.40139079,2.12927497 2.1994984,2.43274054 2.08413133,2.81395349 C2.02895577,3.00455996 1.94619243,3.14124487 1.83584131,3.22400821 C1.7254902,3.30677155 1.58504332,3.34815321 1.41450068,3.34815321 C1.33926129,3.34815321 1.25649795,3.34062927 1.16621067,3.3255814 L0.188098495,3.15253078 C0.263337893,2.63087095 0.40880073,2.17316461 0.624487004,1.77941176 C0.840173279,1.38565891 1.10978112,1.05711354 1.43331053,0.79377565 C1.75683995,0.530437756 2.12802098,0.332307342 2.54685363,0.199384405 C2.96568627,0.0664614683 3.41586867,0 3.89740082,0 Z" id="Path"></path>
            </g>
        </g>
        <g id="Group" transform="translate(112.000000, 134.000000)" fill-rule="nonzero">
            <g id="Caption-D">
                <path d="M8,0 C12.418278,-8.11624501e-16 16,3.581722 16,8 C16,12.418278 12.418278,16 8,16 C3.581722,16 5.41083001e-16,12.418278 0,8 C-5.41083001e-16,3.581722 3.581722,8.11624501e-16 8,0 Z" id="Rectangle-4" fill="#FFAB00"></path>
                <g id="d" transform="translate(4.543314, 2.350400)" fill="#FFFFFF">
                    <path d="M5.21668571,9.76388571 C5.0487619,9.76388571 4.94270476,9.68213333 4.89851429,9.51862857 L4.79245714,8.70331429 C4.50521905,9.05241905 4.17710476,9.33192381 3.80811429,9.54182857 C3.43912381,9.75173333 3.016,9.85668571 2.53874286,9.85668571 C2.15428571,9.85668571 1.80518095,9.78266667 1.49142857,9.63462857 C1.17767619,9.48659048 0.91032381,9.26895238 0.689371429,8.98171429 C0.468419048,8.69447619 0.298285714,8.33653333 0.178971429,7.90788571 C0.0596571429,7.4792381 0,6.98651429 0,6.42971429 C0,5.93478095 0.0662857143,5.47409524 0.198857143,5.04765714 C0.331428571,4.62121905 0.522552381,4.25112381 0.772228571,3.93737143 C1.02190476,3.62361905 1.32571429,3.37725714 1.68365714,3.19828571 C2.0416,3.01931429 2.44815238,2.92982857 2.90331429,2.92982857 C3.31428571,2.92982857 3.6656,2.99942857 3.95725714,3.13862857 C4.24891429,3.27782857 4.5096381,3.47337143 4.73942857,3.72525714 L4.73942857,0 L5.91931429,0 L5.91931429,9.76388571 L5.21668571,9.76388571 Z M2.92982857,8.90217143 C3.31428571,8.90217143 3.6512381,8.81379048 3.94068571,8.63702857 C4.23013333,8.46026667 4.49638095,8.21059048 4.73942857,7.888 L4.73942857,4.64 C4.52289524,4.34834286 4.28537143,4.1439619 4.02685714,4.02685714 C3.76834286,3.90975238 3.48220952,3.8512 3.16845714,3.8512 C2.54095238,3.8512 2.05927619,4.0743619 1.72342857,4.52068571 C1.38758095,4.96700952 1.21965714,5.60335238 1.21965714,6.42971429 C1.21965714,6.8672 1.25721905,7.24171429 1.33234286,7.55325714 C1.40746667,7.8648 1.51794286,8.12110476 1.66377143,8.32217143 C1.8096,8.5232381 1.98857143,8.67017143 2.20068571,8.76297143 C2.4128,8.85577143 2.65584762,8.90217143 2.92982857,8.90217143 Z"></path>
                </g>
            </g>
        </g>
    </g>
</svg>