<?xml version="1.0" encoding="UTF-8"?>
<svg width="1920px" height="393px" viewBox="0 0 1920 393" version="1.1" xmlns="http://www.w3.org/2000/svg" xmlns:xlink="http://www.w3.org/1999/xlink">
    <title>dynamic_marks</title>
    <g id="dynamic_marks" stroke="none" stroke-width="1" fill="none" fill-rule="evenodd">
        <g id="Dynamics" transform="translate(20.000000, 6.000000)" fill="#050505" fill-rule="nonzero">
            <g id="g2304" transform="translate(1573.000000, 0.000000)">
                <path d="M28.252768,373.226687 C19.8293674,369.648881 9.69491963,360.17664 5.52223355,351.981422 C-0.792609264,339.578981 -0.726512387,326.196647 5.71433473,313.087716 C10.8742093,302.585916 19.53534,296.427075 30.2901752,295.612091 C40.6390736,294.827866 49.0670995,298.747562 53.0371602,306.191231 C57.4541809,314.472919 57.8258492,323.280407 54.1022078,331.429903 C51.2158426,337.746945 47.8219831,341.581449 39.5814589,347.83597 C35.6365986,350.830104 32.4089862,353.506913 32.4089862,353.784443 C32.4089862,354.702493 35.9188394,357.602478 37.9738634,358.38237 C40.7234718,359.425873 46.6080911,358.236022 51.2693109,355.69408 C56.0812567,353.069944 64.3073826,344.669297 68.9891688,337.598285 C77.2586106,325.108765 87.878301,300.930925 95.6775607,276.836857 C99.3318456,265.547778 117.624014,202.113936 131.259616,153.444916 C135.544209,138.1521 138.560404,126.026155 138.175641,125.640636 C137.800344,125.264602 126.696406,124.862834 113.500232,124.74783 L89.5071906,124.538731 L89.5071906,118.62041 L89.5071906,112.702089 L116.825403,112.49464 L144.143616,112.287199 L149.627878,100.910214 C163.07819,73.0078637 179.31862,48.6368241 194.617756,33.3965906 C216.212208,11.8852979 243.86567,0.253993399 273.41439,0.253993399 C287.723105,0.253993399 294.657804,3.05633809 302.864044,12.1547401 C317.011694,27.8404993 315.865162,51.6116547 300.200889,67.3701974 C294.400373,73.2056145 289.548239,75.8058564 282.370239,76.9255633 C268.156473,79.1427951 259.68373,72.5389196 258.692876,58.4708032 C257.987929,48.4620577 259.908548,45.5376338 275.852838,32.342147 C288.197374,22.1258128 289.587468,19.7801873 285.549829,15.9795718 C283.84053,14.3706061 282.568461,14.026447 277.477325,13.795556 C256.378579,12.8386929 239.448711,27.4735303 227.873212,56.6753196 C223.540483,67.6055888 211.199821,106.877759 210.8876,110.729316 C210.804544,111.753872 214.496829,111.966016 238.356292,112.307535 L265.920941,112.702089 L265.920941,118.62041 L265.920941,124.538731 L236.866533,124.933286 C212.154054,125.268879 207.710019,125.504728 207.128885,126.511505 C206.753116,127.16252 202.210154,141.899139 197.033419,159.259547 C184.086241,202.678504 167.524274,248.901482 156.491893,272.407301 C145.303064,296.246456 130.236841,318.78485 112.327876,338.474693 C98.4363725,353.747576 90.2398589,360.50352 78.6776623,366.21077 C66.3197137,372.310799 58.436633,374.267223 44.222407,374.761876 C33.399629,375.13851 32.5649556,375.058273 28.252768,373.226687 Z" id="path2306"></path>
            </g>
            <g id="g2371" transform="translate(0.000000, 108.000000)">
                <path d="M0.393967463,221.662219 C0.196001667,221.14616 0.128263414,219.070653 0.243433461,217.049981 L0.452845956,213.376031 L21.8752733,211.884171 C33.6576066,211.06365 43.5369072,210.141885 43.8292725,209.835805 C44.1216309,209.529724 61.1273726,169.745246 81.6197982,121.425853 C116.674917,38.7688544 118.877865,33.336894 118.863763,29.5907596 C118.843681,24.2567138 117.053512,20.3906107 113.913553,18.9001244 C108.383766,16.2752282 101.746496,18.2786507 93.4335775,25.0818859 C86.4647828,30.7851006 79.0449323,40.1414579 71.2554086,53.048317 C59.6044564,72.3533851 58.8041907,73.4399137 56.4222806,73.1872819 C55.2967635,73.0679099 54.0779528,72.6777098 53.7138221,72.3201742 C52.9571181,71.5771771 58.6088255,59.7618993 65.1162984,48.4825356 C75.148993,31.0929359 88.5633036,15.300666 99.0853122,8.49183258 C107.041328,3.34346233 113.116045,1.29452171 121.697616,0.864930117 C134.768055,0.210625901 139.524223,1.88584207 148.545219,10.3211774 C153.808859,15.2430898 157.467277,19.9240693 160.077623,25.0769862 C161.055015,27.0064054 162.140657,28.7618062 162.490146,28.9778747 C162.839643,29.1939432 164.765214,27.5687509 166.769192,25.3663405 C177.267522,13.828488 189.123491,6.27060728 202.493585,2.59294703 C209.575781,0.644874115 222.5741,0.179171187 227.786532,1.68675315 C232.589819,3.07599826 238.504493,6.52575453 241.502307,9.68652863 C249.308622,17.9172007 256.075335,36.5842853 256.075335,49.8886162 C256.075335,58.396233 251.306934,78.7480436 247.164956,87.9186346 C246.103621,90.2684932 243.160099,95.645455 240.623798,99.8674386 C220.462358,133.428577 197.369982,150.218067 171.371181,150.218067 C162.622435,150.218067 159.794937,149.52098 150.610008,145.099622 C144.275505,142.050383 142.113976,140.559036 136.864767,135.616061 C132.209052,131.231963 130.463672,129.964209 129.953485,130.596055 C128.99001,131.789276 97.71908,208.188529 97.71908,209.349215 C97.71908,209.874061 97.9494474,210.325337 98.2310075,210.352048 C98.5125677,210.378758 106.26827,211.070082 115.465902,211.888323 L132.188868,213.376031 L132.188868,217.814158 L132.188868,222.252285 L66.4713911,222.426396 C11.2418965,222.572725 0.696462038,222.450765 0.393967463,221.662219 Z M167.682511,130.063869 C171.06868,128.137148 177.104538,121.845823 180.77297,116.419359 C192.148833,99.5917967 210.401425,57.212564 213.791566,39.7561124 C214.822568,34.4473134 214.301405,28.035028 212.602413,25.1250231 C208.587072,18.2476029 197.478026,18.7403231 185.687133,26.3187974 C176.807791,32.0259054 166.987437,42.7469117 161.632763,52.5792684 C156.307748,62.3571659 146.730743,88.9403666 144.44524,100.287244 C142.958363,107.669181 143.506624,112.761782 146.481667,119.202939 C151.902891,130.940235 159.396002,134.778867 167.682511,130.063869 Z" id="path2373"></path>
            </g>
            <g id="g2443" transform="translate(963.000000, 3.000000)">
                <path d="M220.520204,377.606727 C212.840635,374.379218 202.090319,364.6248 197.398493,356.62701 C192.289345,347.917898 190.605199,336.376755 192.987054,326.395862 C194.499552,320.058016 199.1353,311.36813 203.342208,306.984909 C213.099019,296.819207 230.925399,295.332758 240.238357,303.908328 C245.373241,308.63664 247.269702,313.70749 247.320139,322.843859 C247.387496,335.046129 243.737707,341.530261 231.341133,351.231937 C227.701908,354.080028 224.724332,357.008111 224.724332,357.738786 C224.724332,358.469462 225.646668,359.932924 226.774091,360.990933 C228.397632,362.514652 229.677401,362.914574 232.929883,362.914574 C250.43775,362.914574 269.174631,335.537389 285.877796,285.550322 C294.608139,259.423407 331.665292,127.83533 330.594105,126.765219 C330.219435,126.390943 319.023678,125.990101 305.714697,125.874459 L281.516477,125.664203 L281.516477,120.109846 L281.516477,114.55549 L309.259242,114.15875 L337.002006,113.76201 L340.236776,106.576395 C347.697913,90.002457 361.216032,66.9497272 372.316077,51.8706094 C397.388102,17.8110731 431.518831,-0.108407691 469.537161,0.827112576 C479.721541,1.07772514 480.348638,1.19259717 485.572721,3.76466097 C493.1005,7.47092437 499.672424,14.1932827 503.391237,21.9912422 C506.098594,27.6682151 506.307573,28.6536373 506.580811,37.0321143 C506.942295,48.1145948 505.193017,54.3996587 499.295451,63.2082174 C491.381485,75.0284118 479.500648,80.7573338 467.498124,78.5408361 C457.838297,76.7569513 452.674262,69.8266538 452.489827,58.3992953 C452.342406,49.2617361 454.561191,45.9434445 468.363112,34.6599994 C480.552295,24.6950712 483.050912,21.9583524 482.170038,19.537383 C481.812604,18.5548649 480.304872,16.9096725 478.819539,15.8813865 C476.329343,14.1574333 475.562053,14.0452274 468.970272,14.4409832 C449.77691,15.5933059 436.728378,26.25114 425.223322,50.1727854 C419.020587,63.0695886 403.288528,111.943514 404.84074,113.494124 C405.194996,113.847992 417.80317,114.23156 432.858887,114.346503 L460.233019,114.55549 L460.233019,120.109846 L460.233019,125.664203 L430.53303,126.060943 C405.221605,126.39906 400.739553,126.633557 400.200544,127.647902 C399.852642,128.302522 396.685468,139.061057 393.162369,151.555764 C384.579924,181.993471 382.281232,189.03073 367.925607,228.816538 C354.368885,266.388388 347.628174,281.705716 336.847754,299.436214 C324.985265,318.946573 305.415327,343.231767 291.385761,355.851979 C275.468153,370.170642 255.758578,378.165464 234.653029,378.86463 C225.602346,379.164455 223.85704,379.009107 220.520204,377.606727 Z M197.267355,271.25571 C188.66124,267.000041 182.599493,254.470397 183.91572,243.657747 C184.165606,241.604873 189.504306,223.321693 195.77948,203.028454 C208.712442,161.204356 209.459397,158.387282 210.086414,149.071848 C210.462434,143.486721 210.29174,141.85001 209.093704,139.551007 C203.058883,127.970197 185.600024,139.630252 172.85817,163.751219 C171.705488,165.933288 163.633299,189.499629 154.920034,216.120866 L139.077646,264.523116 L120.343069,264.735847 C102.772532,264.93536 101.608492,264.86009 101.608492,263.524355 C101.608492,262.74104 108.40123,240.20185 116.703368,213.437279 C129.073571,173.558411 132.033514,163.100352 133.101286,155.500183 C134.652704,144.457622 134.168898,139.47223 131.264318,136.57065 C129.520044,134.828185 128.803113,134.639837 125.432598,135.038608 C115.408666,136.224574 105.86687,145.335925 97.8563184,161.37078 C96.5481927,163.989263 88.2309631,187.91267 79.3734536,214.533907 C70.5160235,241.155144 62.9158047,263.382489 62.484105,263.928006 C61.8971204,264.669735 57.116731,264.919855 43.5276811,264.919855 C26.7131552,264.919855 25.3561009,264.815592 25.3561009,263.523633 C25.3561009,262.755719 32.3405022,241.242506 40.8770368,215.716493 C49.413492,190.190488 57.2765433,165.734918 58.3505105,161.37078 C62.6603592,143.856553 59.7592735,134.789217 49.8457478,134.789217 C38.3093964,134.789217 25.7382366,148.862758 11.7491794,177.43874 C5.75097572,189.69131 5.32229431,190.332782 3.13186494,190.332782 C1.86401008,190.332782 0.639126619,190.029594 0.409892868,189.659031 C-0.143651834,188.764295 7.4853999,169.159036 12.6528497,158.196862 C26.4743104,128.87647 42.7568966,110.272446 58.8856276,105.37271 C65.6577136,103.315424 75.3943497,103.337086 79.9875237,105.419661 C84.6678319,107.541742 91.2963093,112.830973 98.809791,120.43899 C102.294446,123.967482 105.479731,126.854422 105.888237,126.854422 C106.296664,126.854422 109.343185,124.763945 112.658337,122.208917 C125.576525,112.252614 139.286864,106.128277 151.141886,105.018517 C159.668731,104.220308 162.385381,105.687769 174.164151,117.454729 C179.339147,122.624558 183.71103,126.854422 183.879421,126.854422 C184.047811,126.854422 187.319833,124.584436 191.150483,121.810003 C206.094761,110.986435 217.779486,106.226685 229.887254,106.03064 C238.385821,105.893035 241.757527,107.082667 246.773664,111.988528 C250.906543,116.030632 253.047329,121.409185 254.036784,130.236692 C255.346339,141.919876 254.381587,146.544061 242.69146,184.613247 C236.769588,203.897973 231.333349,222.590501 230.610858,226.152201 C228.992877,234.129217 229.490503,240.10445 231.939635,242.10732 C238.394956,247.386458 250.425439,237.104051 264.224262,214.513769 C266.745198,210.386723 269.192264,207.006857 269.662169,207.002953 C270.132075,206.99905 271.350604,207.882756 272.370003,208.966744 L274.223492,210.937636 L272.707023,214.297839 C270.749957,218.634561 258.704542,236.945958 253.761322,243.099169 C242.032195,257.699263 228.437347,268.368666 217.385436,271.647355 C211.352998,273.436953 201.281964,273.240892 197.267355,271.25571 Z" id="path2445"></path>
            </g>
            <g id="g2507" transform="translate(383.000000, 102.000000)">
                <path d="M185.744671,234.837331 C184.853886,233.944095 185.212181,225.99144 186.15685,225.688942 C186.64686,225.532036 196.653762,224.742647 208.39448,223.934754 C223.013466,222.928796 230.007891,222.181095 230.587421,221.562334 C231.865226,220.197995 308.63605,38.200095 309.073175,35.4988259 C309.550783,32.547761 306.849134,29.4758327 303.776288,29.4758327 C297.118634,29.4758327 286.443536,34.523714 278.514136,41.4213604 C266.901355,51.5232122 258.310601,64.059406 244.090395,91.654973 C232.739119,113.683134 225.905346,125.268602 219.586886,133.196506 C207.306622,148.604683 190.685971,155.862783 177.024626,151.783066 C171.4621,150.121918 168.715405,147.79331 165.955667,142.398869 C164.539947,139.63169 164.305384,138.08518 164.275235,131.320976 L164.240239,123.459246 L175.39266,89.7994688 C186.493834,56.2943249 188.829633,47.4593194 188.829633,38.9754188 C188.829633,34.3965041 187.400086,30.6211368 185.224013,29.4533553 C184.313413,28.9646845 182.04283,28.7336139 179.901254,28.9116893 C173.121863,29.4754396 166.336699,35.9339941 158.395895,49.3819913 C155.027974,55.0856267 152.12027,62.6342386 138.574319,100.84059 L122.699766,145.615031 L106.229076,145.806879 C90.1346432,145.994346 89.7584578,145.965865 89.7584578,144.559994 C89.7584578,143.76869 96.0020089,123.894879 103.632984,100.395966 C111.26403,76.8970614 118.027171,55.2666395 118.662224,52.3283678 C120.346434,44.535449 120.411507,33.1968898 118.786241,30.7014765 C117.652197,28.9602605 117.10367,28.762738 113.440674,28.7768248 C108.366163,28.7963362 104.795609,30.3780306 99.9770438,34.7409479 C95.9422811,38.3942654 89.962801,47.2345883 86.9114088,54.0578555 C85.8381615,56.4577488 78.1460331,77.7182691 69.817711,101.30346 C61.4894601,124.888651 54.3510611,144.587646 53.9547052,145.079004 C53.1148809,146.120119 21.6817351,146.398153 21.0481073,145.370074 C20.8439066,145.038802 27.6850207,124.997265 36.2506148,100.833322 C44.8161376,76.6693785 52.3411279,54.3928796 52.9728314,51.3299923 C54.6226872,43.3302314 54.4995966,35.4669573 52.6776136,32.4703087 C51.0752264,29.8349423 47.5335388,28.0383296 43.987646,28.0621221 C38.2997488,28.1002872 30.1573098,34.4768295 23.6130529,44.0179899 C19.3609038,50.2174002 12.6160098,62.555457 8.70640465,71.2859443 C5.93604671,77.4725472 5.73084821,77.7265382 3.3365331,77.9346668 C1.73614161,78.0737766 0.714710661,77.805177 0.47644092,77.1826208 C0.27259663,76.6499743 1.9471846,71.5675443 4.19766832,65.8883303 C19.3343185,27.6904052 35.3926869,6.87088503 53.7869256,1.59612851 C66.4684638,-2.04045067 73.7561109,0.688263029 87.620231,14.2643207 C91.3443094,17.9110344 94.7474399,20.8957618 95.1827829,20.8970554 C95.6180546,20.8983418 98.3271167,18.9763989 101.202889,16.626056 C108.085414,11.0010522 116.207183,6.33122012 123.838087,3.61134729 C129.071397,1.74603741 131.130296,1.39256686 137.155819,1.32499887 L144.283242,1.24507366 L148.295339,4.24127916 C150.501989,5.88919076 154.986635,10.150606 158.261187,13.7110907 C161.535738,17.2715755 164.573589,20.1846968 165.012068,20.1846968 C165.450475,20.1846968 168.182345,18.4835685 171.082921,16.4044124 C178.463011,11.1142397 186.61443,6.78236909 193.723108,4.37287738 C204.39956,0.7540943 215.318486,1.74391474 220.810094,6.82838166 C226.165853,11.787018 228.267588,18.8917066 228.24984,31.9772924 L228.237225,41.2684283 L217.715937,66.6403763 C206.280629,94.2164748 204.733551,98.9202839 204.081819,108.093136 C203.57456,115.231945 204.360501,118.098975 206.824523,118.098975 C210.888294,118.098975 217.758631,109.21349 227.823906,90.9402702 C230.963464,85.2405157 236.19542,75.7528365 239.450371,69.8565387 C258.705175,34.9771143 279.411764,12.6325471 298.979461,5.61846135 C312.407383,0.8051884 326.419183,1.97687211 334.941799,8.62566613 C342.972337,14.8905933 348.087404,20.8944538 351.976981,28.6207838 C353.203111,31.0564908 354.323898,33.0493465 354.467516,33.0493465 C354.611205,33.0493465 357.969504,29.8290317 361.930498,25.8930993 C372.903593,14.9894153 383.762934,8.58587863 397.225994,5.08006147 C405.071647,3.03702645 419.615509,2.85708573 425.779162,4.72679819 C441.93204,9.62667882 452.191872,22.2638243 456.499872,42.5658854 C458.070699,49.9686122 457.80258,52.7468405 454.354853,64.7923551 C449.889879,80.3917935 444.932614,91.9801842 437.280613,104.70566 C428.775887,118.849213 422.255008,127.574704 413.891619,136.002036 C399.179407,150.826773 384.314525,158.142349 366.65883,159.247143 C357.276861,159.834214 351.120336,158.508162 341.615846,153.853081 C335.611135,150.912122 333.179686,149.189253 327.830912,144.08516 C323.89857,140.332778 321.079104,138.146266 320.683746,138.542655 C319.160687,140.06991 286.502409,221.329213 287.150505,221.97907 C287.525194,222.354818 295.625082,223.337134 305.150312,224.161994 L322.468809,225.661741 L322.468809,230.307309 L322.468809,234.952877 L254.346115,235.135126 C216.878608,235.235356 186.007958,235.101349 185.744671,234.837331 Z M358.210197,139.185065 C369.087998,134.627541 383.571919,110.738737 398.957958,71.9784627 C409.952364,44.2814936 411.362382,30.7115967 403.827912,25.1109428 C401.941711,23.7088747 400.786355,23.45602 396.594005,23.5277762 C388.007385,23.6747405 379.487051,27.8306513 369.635598,36.6771134 C357.528103,47.5494935 350.626904,59.9766236 340.926696,88.3742014 C333.650595,109.67501 333.079831,116.57455 337.742591,126.863375 C342.980605,138.42152 349.978166,142.634106 358.210197,139.185065 Z" id="path2509"></path>
            </g>
        </g>
    </g>
</svg>